PathFileType	4	(X/Y/Z)	C:/Users/opensim2020/Desktop/walking_exp_matlab/subject02_walking11_straight_04.trc	
DataRate	CameraRate	NumFrames	NumMarkers	Units	OrigDataRate	OrigDataStartFrame	OrigNumFrames	
100.00	100.00	5	42	mm	100.00	3312	227	
Frame#	Time	LFHD			RFHD			LBHD			RBHD			C7			T10			CLAV			STRN			RBAK			LSHO			LUPA			LELB			LFRM			LWRA			LWRB			LFIN			RSHO			RUPA			RELB			RFRM			RWRA			RWRB			RFIN			LASI			RASI			LPSI			RPSI			LTHI			LKNE			LTIB			LANK			LHEE			LTOE			RTHI			RKNE			RTIB			RANK			RHEE			RTOE			*39			*40			*41			
		X1	Y1	Z1	X2	Y2	Z2	X3	Y3	Z3	X4	Y4	Z4	X5	Y5	Z5	X6	Y6	Z6	X7	Y7	Z7	X8	Y8	Z8	X9	Y9	Z9	X10	Y10	Z10	X11	Y11	Z11	X12	Y12	Z12	X13	Y13	Z13	X14	Y14	Z14	X15	Y15	Z15	X16	Y16	Z16	X17	Y17	Z17	X18	Y18	Z18	X19	Y19	Z19	X20	Y20	Z20	X21	Y21	Z21	X22	Y22	Z22	X23	Y23	Z23	X24	Y24	Z24	X25	Y25	Z25	X26	Y26	Z26	X27	Y27	Z27	X28	Y28	Z28	X29	Y29	Z29	X30	Y30	Z30	X31	Y31	Z31	X32	Y32	Z32	X33	Y33	Z33	X34	Y34	Z34	X35	Y35	Z35	X36	Y36	Z36	X37	Y37	Z37	X38	Y38	Z38	X39	Y39	Z39	X40	Y40	Z40	X41	Y41	Z41	X42	Y42	Z42	

86	0.850	-961.83789	132.49579	1754.62134	-1104.32019	141.86998	1734.17578	-941.98657	254.02205	1667.03857	-1084.16821	274.87094	1644.15491	-1007.92133	300.60950	1525.70276	-999.12390	341.29352	1248.48047	-1009.90076	159.02823	1462.60547	-1025.62170	100.96128	1292.23303	-1060.43030	357.56735	1348.38269	-834.04114	209.11543	1503.15808	-748.19043	188.75394	1302.01294	-735.70490	169.97266	1162.15161	-727.61829	136.33728	1034.31104	-775.15204	71.80866	918.69727	-729.87469	106.45923	915.12787	-731.61963	76.06848	856.29126	-1200.74280	240.67404	1491.52478	-1276.86414	272.22156	1297.14343	-1293.20142	255.99397	1151.80139	-1315.78333	225.40590	1036.23315	-1302.69873	170.98441	911.05560	-1329.63611	220.84734	906.68579	-1335.08398	183.14822	844.00018	-894.30609	81.41808	994.54401	-1149.05981	122.87999	974.52600	-938.90967	301.34891	1038.17188	-1050.97131	325.91675	1031.05212	-841.36774	126.82186	681.35791	-880.48383	157.46040	478.89120	-889.93469	205.18513	288.32465	-944.60706	194.04910	69.67535	-996.76184	230.46539	43.50103	-941.33075	36.80130	35.00418	-1226.23743	190.23427	675.18451	-1221.75464	176.66727	476.46609	-1196.65295	317.24963	362.11105	-1140.78857	440.86923	222.48650	-1068.94946	477.74298	195.23018	-1195.94336	388.13391	79.87203	-1044.66162	247.20134	1808.04541	-3357.44238	2845.83936	1034.43494			 
87	0.860	-961.41125	123.95487	1754.90771	-1103.63892	133.77733	1734.62939	-940.93671	245.72313	1667.54321	-1083.04187	266.63431	1644.70557	-1006.53625	292.56619	1526.37598	-997.21759	334.04950	1249.58447	-1008.90326	151.14323	1462.84155	-1024.63025	93.76051	1292.35474	-1058.62378	350.24249	1349.36243	-833.12640	200.24571	1504.15381	-747.47516	177.74387	1303.21460	-734.09113	157.29773	1163.85571	-726.55432	121.53864	1036.58752	-774.32233	55.06200	922.41742	-728.94226	89.77718	917.87610	-730.87006	58.12001	859.83716	-1199.41907	233.30258	1491.88574	-1275.43799	266.66992	1297.89929	-1291.80334	252.01047	1152.42810	-1314.67273	222.22772	1036.72217	-1301.31592	168.91441	911.16492	-1328.15991	218.75328	906.96887	-1333.77075	181.41316	844.13739	-893.05701	75.85944	994.61102	-1147.90955	115.71229	976.14447	-938.55377	295.25763	1038.58020	-1050.78381	319.08453	1031.63245	-840.88544	124.06711	681.11499	-880.41705	155.26724	478.72296	-890.10754	203.81120	288.29846	-944.81787	194.01123	69.71555	-996.68665	230.26251	43.46086	-941.07953	36.74400	35.03598	-1226.26636	178.24078	676.59515	-1221.27332	161.57494	478.20721	-1196.00305	299.80197	361.00891	-1140.63318	420.19586	218.36891	-1068.92664	456.27298	188.79672	-1199.14575	363.64142	79.15199	-1043.78711	238.97710	1808.43408	-3357.33374	2845.87207	1034.21533			 
88	0.870	-960.57416	115.74926	1755.50525	-1103.10913	125.54561	1734.85559	-940.17145	237.30528	1668.26672	-1082.07764	258.53488	1645.18372	-1005.32379	284.52530	1527.24487	-995.53931	326.86978	1250.60266	-1008.09839	143.32852	1463.19177	-1023.48163	86.53429	1292.39771	-1056.80530	342.88135	1350.25098	-832.28058	191.55905	1505.15710	-746.20032	167.57831	1304.89563	-732.59967	144.84999	1165.62793	-725.31079	106.75314	1038.95959	-773.57513	38.71573	926.13800	-728.26355	72.60267	920.93457	-730.27734	39.34214	863.66211	-1198.40784	225.85085	1492.39539	-1274.11584	261.14505	1298.72595	-1290.48083	248.03566	1153.14832	-1313.21045	219.07378	1037.08435	-1299.99426	166.55388	911.09631	-1326.75940	216.55246	907.38843	-1332.49316	179.53064	844.41626	-891.63531	70.40501	995.05127	-1146.27002	108.51384	977.73938	-938.49786	289.65698	1038.98499	-1051.13867	312.27966	1032.30640	-840.63721	121.32549	680.87463	-880.22791	153.04904	478.62482	-890.19952	202.66508	288.57278	-944.94110	193.97299	69.76474	-997.03455	230.47285	43.66853	-940.88068	36.72857	34.94206	-1226.19971	166.56372	678.04797	-1220.60950	146.67015	479.88440	-1195.40063	282.24921	359.54037	-1140.66028	398.87955	213.54631	-1069.15295	434.03201	181.76147	-1201.75903	338.45963	77.57460	-1042.80481	230.59599	1808.81519	-3357.29565	2845.91284	1034.36401			 
89	0.880	-960.33875	107.07304	1755.81079	-1102.47522	117.43985	1735.15686	-939.33740	229.02400	1668.74670	-1081.35107	250.52525	1645.69409	-1004.03485	276.51349	1527.90076	-994.19275	319.85587	1251.54443	-1007.21423	135.55386	1463.53308	-1022.47046	79.43774	1292.51343	-1055.15759	335.56012	1351.24890	-831.44281	182.97789	1506.12390	-745.14392	157.24260	1306.43848	-731.16010	132.78542	1167.40320	-724.15356	92.35812	1041.42065	-772.94971	22.00007	930.14435	-727.43445	56.07926	924.19348	-729.77136	21.21266	867.60907	-1197.18604	218.41541	1492.86035	-1272.80664	255.62057	1299.54578	-1289.18164	244.01855	1153.89099	-1311.76599	215.98064	1037.48560	-1298.81299	164.11552	911.28613	-1325.41406	214.23959	907.82709	-1331.34766	177.45795	844.73175	-890.36621	65.54362	995.58301	-1144.36267	101.16570	979.18182	-938.66913	284.02264	1038.92480	-1051.90515	305.53134	1033.04199	-840.54614	118.61814	680.60583	-880.39166	150.62665	478.48434	-890.35577	201.46205	288.86792	-945.09808	193.92368	69.89468	-997.15863	230.42764	43.76104	-940.69287	36.69299	34.86029	-1225.99854	155.12813	679.48108	-1219.75745	131.97256	481.41623	-1194.99304	264.76752	357.76273	-1140.90710	377.02832	208.00845	-1069.60986	411.19550	174.16336	-1203.97656	312.30597	75.44973	-1042.33643	222.25542	1809.32690	-3357.32837	2845.88086	1034.29785			 
90	0.890	-959.72949	98.77177	1756.28052	-1102.07007	109.31231	1735.26050	-938.54980	220.55159	1669.13770	-1080.56128	242.64310	1645.86060	-1002.87225	268.55804	1528.66284	-993.12659	312.73767	1252.36877	-1006.30743	127.84100	1463.90430	-1021.35779	72.32807	1292.60852	-1054.44922	328.81918	1352.42749	-830.63019	174.61058	1507.09973	-744.02612	147.22214	1307.93311	-729.77234	120.81369	1169.18896	-723.24500	78.17394	1043.78723	-772.45673	6.10644	933.97913	-727.02197	39.59241	927.25885	-729.34814	3.93210	871.48779	-1196.25671	210.87672	1493.16150	-1271.45874	250.09950	1300.31702	-1287.90503	239.99374	1154.59814	-1310.71948	212.61905	1038.03894	-1297.68665	161.54182	911.47638	-1324.09155	211.82855	908.26019	-1330.23279	175.27618	845.07257	-888.79718	60.39506	996.22198	-1142.41528	93.68912	980.47821	-939.28491	278.46667	1038.99500	-1052.91479	298.77841	1033.88782	-840.55774	115.73524	680.24622	-880.46124	148.32607	478.36978	-890.60663	200.20885	289.10178	-945.25549	193.77188	69.96258	-997.31732	230.37077	43.89686	-940.52844	36.64340	34.78173	-1225.67102	144.02098	680.83301	-1218.86304	117.45129	482.86810	-1194.55505	246.91258	355.36389	-1141.43066	354.67456	201.93684	-1070.36450	387.85419	166.04475	-1205.84595	285.21213	72.78361	-1041.46912	213.89244	1809.85291	-3360.33032	2845.10010	1034.18872			 
